<mxfile host="app.diagrams.net" agent="Mozilla/5.0 (Windows NT 10.0; Win64; x64; rv:143.0) Gecko/20100101 Firefox/143.0" version="28.2.5">
  <diagram name="Page-1" id="s0JgHEWnSMEsfUe8IU0y">
    <mxGraphModel grid="1" page="1" gridSize="10" guides="1" tooltips="1" connect="1" arrows="1" fold="1" pageScale="1" pageWidth="827" pageHeight="1169" math="0" shadow="0">
      <root>
        <mxCell id="0" />
        <mxCell id="1" parent="0" />
        <mxCell id="fQqCM1FoazoIE4B0P7m_-3" value="V_redireccion-whattsap" style="rounded=0;whiteSpace=wrap;html=1;fillColor=#ffe6cc;strokeColor=#d79b00;" vertex="1" parent="1">
          <mxGeometry x="-560" y="30" width="120" height="60" as="geometry" />
        </mxCell>
        <mxCell id="fQqCM1FoazoIE4B0P7m_-4" value="&lt;div&gt;C_datos-whatsapp&lt;/div&gt;&lt;div&gt;(route.ts)&lt;/div&gt;" style="rounded=0;whiteSpace=wrap;html=1;fillColor=#e1d5e7;strokeColor=#9673a6;" vertex="1" parent="1">
          <mxGeometry x="-370" y="30" width="120" height="60" as="geometry" />
        </mxCell>
        <mxCell id="fQqCM1FoazoIE4B0P7m_-5" value="orders" style="rounded=0;whiteSpace=wrap;html=1;fillColor=#d5e8d4;strokeColor=#82b366;" vertex="1" parent="1">
          <mxGeometry x="-90" y="30" width="120" height="60" as="geometry" />
        </mxCell>
        <mxCell id="fQqCM1FoazoIE4B0P7m_-6" value="Actor" style="shape=umlActor;verticalLabelPosition=bottom;verticalAlign=top;html=1;outlineConnect=0;" vertex="1" parent="1">
          <mxGeometry x="-750" y="30" width="30" height="60" as="geometry" />
        </mxCell>
        <mxCell id="fQqCM1FoazoIE4B0P7m_-7" style="edgeStyle=orthogonalEdgeStyle;rounded=0;orthogonalLoop=1;jettySize=auto;html=1;exitX=0.5;exitY=1;exitDx=0;exitDy=0;" edge="1" parent="1" source="fQqCM1FoazoIE4B0P7m_-3" target="fQqCM1FoazoIE4B0P7m_-3">
          <mxGeometry relative="1" as="geometry" />
        </mxCell>
        <mxCell id="fQqCM1FoazoIE4B0P7m_-8" value="" style="endArrow=classic;html=1;rounded=0;" edge="1" parent="1">
          <mxGeometry width="50" height="50" relative="1" as="geometry">
            <mxPoint x="-730" y="150" as="sourcePoint" />
            <mxPoint x="-500" y="150" as="targetPoint" />
          </mxGeometry>
        </mxCell>
        <mxCell id="fQqCM1FoazoIE4B0P7m_-9" value="Clic en confirmar pedido" style="edgeLabel;html=1;align=center;verticalAlign=middle;resizable=0;points=[];" connectable="0" vertex="1" parent="fQqCM1FoazoIE4B0P7m_-8">
          <mxGeometry x="-0.1758" y="4" relative="1" as="geometry">
            <mxPoint x="8" y="-6" as="offset" />
          </mxGeometry>
        </mxCell>
        <mxCell id="fQqCM1FoazoIE4B0P7m_-10" value="" style="endArrow=classic;html=1;rounded=0;" edge="1" parent="1">
          <mxGeometry width="50" height="50" relative="1" as="geometry">
            <mxPoint x="-500" y="200" as="sourcePoint" />
            <mxPoint x="-310" y="200" as="targetPoint" />
          </mxGeometry>
        </mxCell>
        <mxCell id="fQqCM1FoazoIE4B0P7m_-11" value="GET/api/datos-whatsapp(order_id)" style="text;html=1;align=center;verticalAlign=middle;resizable=0;points=[];autosize=1;strokeColor=none;fillColor=none;" vertex="1" parent="1">
          <mxGeometry x="-500" y="170" width="210" height="30" as="geometry" />
        </mxCell>
        <mxCell id="fQqCM1FoazoIE4B0P7m_-12" value="" style="endArrow=classic;html=1;rounded=0;" edge="1" parent="1">
          <mxGeometry width="50" height="50" relative="1" as="geometry">
            <mxPoint x="-310" y="240" as="sourcePoint" />
            <mxPoint x="-30" y="240" as="targetPoint" />
          </mxGeometry>
        </mxCell>
        <mxCell id="fQqCM1FoazoIE4B0P7m_-13" value="&lt;div&gt;SELECT * FROM orders WHERE id = ?, orderId&lt;/div&gt;" style="text;html=1;align=center;verticalAlign=middle;resizable=0;points=[];autosize=1;strokeColor=none;fillColor=none;" vertex="1" parent="1">
          <mxGeometry x="-310" y="200" width="280" height="30" as="geometry" />
        </mxCell>
        <mxCell id="fQqCM1FoazoIE4B0P7m_-14" value="" style="endArrow=classic;html=1;rounded=0;dashed=1;" edge="1" parent="1">
          <mxGeometry width="50" height="50" relative="1" as="geometry">
            <mxPoint x="-30" y="280" as="sourcePoint" />
            <mxPoint x="-310" y="280" as="targetPoint" />
          </mxGeometry>
        </mxCell>
        <mxCell id="fQqCM1FoazoIE4B0P7m_-15" value="Retorna array vacio" style="text;html=1;align=center;verticalAlign=middle;resizable=0;points=[];autosize=1;strokeColor=none;fillColor=none;" vertex="1" parent="1">
          <mxGeometry x="-300" y="250" width="130" height="30" as="geometry" />
        </mxCell>
        <mxCell id="fQqCM1FoazoIE4B0P7m_-20" value="" style="endArrow=classic;html=1;rounded=0;" edge="1" parent="1">
          <mxGeometry width="50" height="50" relative="1" as="geometry">
            <mxPoint x="-310" y="310" as="sourcePoint" />
            <mxPoint x="-500" y="310" as="targetPoint" />
          </mxGeometry>
        </mxCell>
        <mxCell id="fQqCM1FoazoIE4B0P7m_-21" value="Retorna error &quot;Order not found&quot;" style="text;html=1;align=center;verticalAlign=middle;resizable=0;points=[];autosize=1;strokeColor=none;fillColor=none;" vertex="1" parent="1">
          <mxGeometry x="-505" y="280" width="190" height="30" as="geometry" />
        </mxCell>
        <mxCell id="fQqCM1FoazoIE4B0P7m_-22" value="" style="endArrow=classic;html=1;rounded=0;" edge="1" parent="1">
          <mxGeometry width="50" height="50" relative="1" as="geometry">
            <mxPoint x="-500" y="440" as="sourcePoint" />
            <mxPoint x="-740" y="440" as="targetPoint" />
          </mxGeometry>
        </mxCell>
        <mxCell id="fQqCM1FoazoIE4B0P7m_-23" value="Muestra mensaje &quot;No se encontrÃ³ la orden&quot;" style="text;html=1;align=center;verticalAlign=middle;resizable=0;points=[];autosize=1;strokeColor=none;fillColor=none;" vertex="1" parent="1">
          <mxGeometry x="-750" y="410" width="260" height="30" as="geometry" />
        </mxCell>
        <mxCell id="fQqCM1FoazoIE4B0P7m_-24" value="" style="endArrow=none;dashed=1;html=1;dashPattern=1 3;strokeWidth=2;rounded=0;entryX=0.5;entryY=1;entryDx=0;entryDy=0;" edge="1" parent="1" target="fQqCM1FoazoIE4B0P7m_-3">
          <mxGeometry width="50" height="50" relative="1" as="geometry">
            <mxPoint x="-500" y="600" as="sourcePoint" />
            <mxPoint x="-190" y="250" as="targetPoint" />
          </mxGeometry>
        </mxCell>
        <mxCell id="fQqCM1FoazoIE4B0P7m_-25" value="" style="endArrow=none;dashed=1;html=1;dashPattern=1 3;strokeWidth=2;rounded=0;entryX=0.5;entryY=1;entryDx=0;entryDy=0;" edge="1" parent="1" target="fQqCM1FoazoIE4B0P7m_-4">
          <mxGeometry width="50" height="50" relative="1" as="geometry">
            <mxPoint x="-310" y="600" as="sourcePoint" />
            <mxPoint x="-310" y="100" as="targetPoint" />
          </mxGeometry>
        </mxCell>
        <mxCell id="fQqCM1FoazoIE4B0P7m_-26" value="" style="endArrow=none;dashed=1;html=1;dashPattern=1 3;strokeWidth=2;rounded=0;entryX=0.5;entryY=1;entryDx=0;entryDy=0;" edge="1" parent="1" target="fQqCM1FoazoIE4B0P7m_-5">
          <mxGeometry width="50" height="50" relative="1" as="geometry">
            <mxPoint x="-30" y="600" as="sourcePoint" />
            <mxPoint x="-80" y="250" as="targetPoint" />
          </mxGeometry>
        </mxCell>
        <mxCell id="fQqCM1FoazoIE4B0P7m_-27" value="" style="endArrow=classic;html=1;rounded=0;" edge="1" parent="1">
          <mxGeometry width="50" height="50" relative="1" as="geometry">
            <mxPoint x="-500" y="340" as="sourcePoint" />
            <mxPoint x="-500" y="360" as="targetPoint" />
            <Array as="points">
              <mxPoint x="-440" y="340" />
              <mxPoint x="-440" y="360" />
            </Array>
          </mxGeometry>
        </mxCell>
        <mxCell id="fQqCM1FoazoIE4B0P7m_-28" value="Maneja el error" style="text;html=1;align=center;verticalAlign=middle;resizable=0;points=[];autosize=1;strokeColor=none;fillColor=none;" vertex="1" parent="1">
          <mxGeometry x="-480" y="310" width="100" height="30" as="geometry" />
        </mxCell>
        <mxCell id="fQqCM1FoazoIE4B0P7m_-29" value="" style="endArrow=none;dashed=1;html=1;dashPattern=1 3;strokeWidth=2;rounded=0;entryX=0.5;entryY=0.5;entryDx=0;entryDy=0;entryPerimeter=0;" edge="1" parent="1" target="fQqCM1FoazoIE4B0P7m_-6">
          <mxGeometry width="50" height="50" relative="1" as="geometry">
            <mxPoint x="-735" y="600" as="sourcePoint" />
            <mxPoint x="-470" y="260" as="targetPoint" />
          </mxGeometry>
        </mxCell>
      </root>
    </mxGraphModel>
  </diagram>
</mxfile>
